<svg width="80" height="80" viewBox="0 0 80 80" fill="none" xmlns="http://www.w3.org/2000/svg">
<g clip-path="url(#clip0_5_452)">
<mask id="mask0_5_452" style="mask-type:luminance" maskUnits="userSpaceOnUse" x="0" y="0" width="80" height="80">
<path d="M0.216797 0H79.7813V79.2384H0.216797V0Z" fill="white"/>
</mask>
<g mask="url(#mask0_5_452)">
<path d="M79.6191 39.6516C79.6191 40.7121 76.5266 41.6393 76.4412 42.6793C76.3575 43.7192 79.2537 45.1554 79.0829 46.1851C78.9105 47.2302 75.7086 47.6366 75.4525 48.6509C75.1929 49.6755 77.8176 51.554 77.4777 52.5444C77.1345 53.5434 73.9105 53.4136 73.4887 54.375C73.0635 55.3398 75.3398 57.6281 74.8394 58.5502C74.3374 59.4775 71.1782 58.8166 70.6027 59.6943C70.0255 60.5772 71.8954 63.207 71.2499 64.0369C70.601 64.8668 67.5938 63.6971 66.8818 64.4706C66.168 65.2442 67.5819 68.1455 66.8083 68.8593C66.0348 69.5714 63.2581 67.9252 62.4282 68.5724C61.5983 69.2179 62.5187 72.3121 61.6359 72.8893C60.7581 73.4648 58.2906 71.3849 57.3633 71.8869C56.4412 72.3873 56.8374 75.5908 55.8708 76.016C54.9111 76.4378 52.821 73.9788 51.822 74.3221C50.8316 74.6619 50.6915 77.8859 49.6669 78.1455C48.6526 78.4016 46.9996 75.6301 45.9545 75.8026C44.9248 75.9734 44.2537 79.1308 43.1967 79.2179C42.1567 79.3016 40.9818 76.2961 39.9197 76.2961C38.8575 76.2961 37.6826 79.3016 36.6427 79.2179C35.5857 79.1308 34.9145 75.9734 33.8848 75.8026C32.8398 75.6301 31.1867 78.4016 30.1724 78.1455C29.1478 77.8859 29.0078 74.6602 28.0173 74.3204C27.0184 73.9788 24.9282 76.4378 23.9685 76.016C23.002 75.5908 23.3982 72.3873 22.476 71.8869C21.5488 71.3849 19.0812 73.4648 18.2035 72.8893C17.3206 72.3121 18.2393 69.2179 17.4111 68.5724C16.5812 67.9252 13.8046 69.5714 13.031 68.8593C12.2574 68.1455 13.6697 65.2442 12.9576 64.4706C12.2455 63.6971 9.23661 64.8668 8.58941 64.0369C7.94392 63.207 9.8138 60.5755 9.23661 59.6943C8.66113 58.8166 5.50198 59.4757 4.99822 58.5502C4.49788 57.6281 6.77588 55.3398 6.35068 54.3733C5.92889 53.4136 2.70314 53.5434 2.36161 52.5444C2.02179 51.554 4.64474 49.6755 4.38688 48.6509C4.13073 47.6366 0.92889 47.2302 0.754709 46.1851C0.583945 45.1537 3.48353 43.7363 3.39644 42.6793C3.31277 41.6393 0.220215 40.7121 0.220215 39.6516C0.220215 38.5895 3.31277 37.6622 3.39644 36.6223C3.48353 35.5652 0.585652 34.1479 0.754709 33.1165C0.92889 32.0731 4.13073 31.6649 4.38688 30.6506C4.64474 29.626 2.02179 27.7476 2.36161 26.7572C2.70314 25.7582 5.92889 25.888 6.35068 24.9283C6.77588 23.9617 4.49788 21.6752 4.99822 20.7514C5.50198 19.8258 8.66113 20.485 9.23661 19.6072C9.8138 18.7261 7.94392 16.0946 8.58941 15.2664C9.23661 14.4348 12.2455 15.6062 12.9576 14.8326C13.6697 14.0574 12.2574 11.1561 13.031 10.4423C13.8046 9.73018 16.5812 11.3781 17.4111 10.7292C18.2393 10.0837 17.3206 6.9894 18.2035 6.41222C19.0812 5.83674 21.5488 7.91666 22.476 7.41461C23.3982 6.91427 23.002 3.71071 23.9685 3.28551C24.9282 2.86372 27.0184 5.32274 28.0173 4.98121C29.0078 4.64138 29.1478 1.41563 30.1724 1.15778C31.1867 0.90163 32.8398 3.67144 33.8848 3.49897C34.9145 3.3282 35.5857 0.170756 36.6427 0.085373C37.6826 -9.27597e-06 38.8575 3.00546 39.9197 3.00546C40.9818 3.00546 42.1567 -9.27597e-06 43.1967 0.085373C44.2537 0.170756 44.9231 3.32991 45.9545 3.49897C46.9996 3.67315 48.6526 0.90163 49.6669 1.15778C50.6915 1.41563 50.8316 4.64138 51.822 4.98121C52.821 5.32444 54.9111 2.86543 55.8708 3.28722C56.8374 3.71071 56.4412 6.91427 57.3633 7.41461C58.2889 7.91666 60.7581 5.83674 61.6359 6.41222C62.517 6.9894 61.5983 10.0837 62.4282 10.7309C63.2581 11.3781 66.0348 9.73189 66.8083 10.444C67.5819 11.1561 66.168 14.0591 66.8818 14.8326C67.5938 15.6062 70.6027 14.4365 71.2499 15.2664C71.8954 16.0946 70.0255 18.7261 70.6027 19.6072C71.1782 20.4867 74.3374 19.8258 74.8394 20.7531C75.3398 21.6752 73.0635 23.9617 73.4887 24.9283C73.9105 25.888 77.1345 25.7582 77.4777 26.7572C77.8176 27.7476 75.1929 29.626 75.4525 30.6523C75.7086 31.6649 78.9105 32.0731 79.0829 33.1182C79.2554 34.1479 76.3558 35.5669 76.4412 36.6223C76.5266 37.6622 79.6191 38.5895 79.6191 39.6516Z" fill="#00C632"/>
</g>
<path d="M17.6367 36.1048C17.5889 36.2824 17.5035 36.4054 17.3788 36.4737C17.2542 36.5403 17.1022 36.5505 16.9246 36.5027L12.3874 35.2801C12.2098 35.2322 12.0851 35.1434 12.0134 35.0154C11.9417 34.8873 11.9297 34.7336 11.9758 34.556C12.0185 34.3989 12.0817 34.2828 12.1671 34.2076C12.2525 34.1325 12.3788 34.0762 12.5445 34.0369L16.3406 33.1165L16.2689 33.3829L13.4495 30.6814C13.3232 30.5652 13.2429 30.4508 13.2071 30.3449C13.1729 30.2374 13.1746 30.1076 13.2156 29.9556C13.2634 29.778 13.3505 29.6533 13.4752 29.5833C13.6015 29.515 13.7518 29.5031 13.9294 29.5509L18.4683 30.7736C18.6459 30.8214 18.7723 30.9051 18.8457 31.0263C18.9191 31.1475 18.9328 31.2961 18.885 31.4737C18.8372 31.6513 18.7501 31.776 18.6254 31.846C18.4991 31.916 18.3471 31.9262 18.1695 31.8784L14.9967 31.0229L15.0428 30.8504L17.2593 33.0123C17.343 33.1011 17.3993 33.1882 17.4301 33.2719C17.4608 33.3555 17.4608 33.4546 17.4301 33.5707C17.3976 33.6851 17.3464 33.7722 17.2747 33.8303C17.203 33.89 17.1125 33.9361 17.0032 33.9669L13.9875 34.7353L14.0387 34.5475L17.2217 35.4047C17.3993 35.4525 17.524 35.5362 17.5991 35.654C17.6743 35.7719 17.6862 35.9221 17.6367 36.1048ZM21.6207 26.6974C21.2945 27.1568 20.9086 27.488 20.4612 27.693C20.0155 27.8962 19.5424 27.9662 19.0438 27.9013C18.5469 27.8364 18.0568 27.6332 17.5752 27.2934C17.2098 27.0321 16.9178 26.7452 16.7009 26.4276C16.484 26.1117 16.3423 25.777 16.2774 25.4252C16.2108 25.0751 16.2228 24.7148 16.3099 24.3494C16.3969 23.9839 16.5626 23.627 16.8068 23.2838C17.1381 22.8159 17.5257 22.4795 17.9697 22.2763C18.412 22.0731 18.8816 22.0031 19.3768 22.0663C19.8737 22.1294 20.3621 22.3326 20.8437 22.6725C21.2091 22.932 21.5011 23.2223 21.718 23.5434C21.9366 23.8627 22.0783 24.1991 22.1466 24.5526C22.2149 24.9061 22.2064 25.2647 22.1193 25.6284C22.0339 25.9921 21.8683 26.349 21.6207 26.6974ZM20.7463 26.0775C20.9308 25.818 21.0281 25.5533 21.0366 25.2835C21.0452 25.0137 20.9683 24.7473 20.8078 24.4843C20.6456 24.2196 20.4065 23.9754 20.0889 23.75C19.6022 23.4051 19.1497 23.2462 18.7296 23.2736C18.3095 23.3009 17.9594 23.5109 17.6811 23.9037C17.4984 24.1598 17.4028 24.4228 17.3891 24.6926C17.3771 24.9624 17.4523 25.2271 17.6128 25.4867C17.7733 25.7462 18.0141 25.9921 18.3368 26.2193C18.8184 26.5608 19.2709 26.7196 19.6961 26.6957C20.1196 26.6718 20.4714 26.4669 20.7463 26.0775ZM25.2819 22.5478C25.1282 22.6571 24.9796 22.6998 24.8362 22.6725C24.6927 22.6451 24.5646 22.5529 24.4519 22.3941L21.747 18.6407C21.6275 18.4734 21.5763 18.3163 21.5933 18.1711C21.6121 18.0242 21.689 17.9013 21.8256 17.804C21.9434 17.7186 22.051 17.6759 22.1483 17.6759C22.2457 17.6759 22.3737 17.6998 22.5325 17.7442L26.9656 19.0232L26.788 19.1513L24.8037 16.3986C24.6927 16.2449 24.6483 16.0963 24.6671 15.9512C24.6876 15.8077 24.7747 15.6796 24.9267 15.5686C25.0804 15.4576 25.2289 15.4167 25.3724 15.444C25.5158 15.4713 25.6422 15.5618 25.7532 15.7155L28.4905 19.515C28.5947 19.6602 28.6408 19.8019 28.6271 19.9419C28.6135 20.082 28.5435 20.1964 28.4171 20.2886C28.2941 20.3774 28.178 20.4235 28.0704 20.4269C27.9629 20.432 27.8297 20.4098 27.6709 20.3654L23.2446 19.0813L23.4171 18.9583L25.3997 21.7111C25.5141 21.8699 25.5619 22.0201 25.5448 22.1619C25.526 22.3053 25.439 22.4334 25.2801 22.5478H25.2819ZM31.5745 18.7073C31.3747 18.7756 31.2023 18.7722 31.0588 18.7005C30.9154 18.6305 30.8095 18.4939 30.7412 18.2941L29.3324 14.1171C29.2658 13.9173 29.2675 13.7449 29.3392 13.6014C29.411 13.458 29.5459 13.3521 29.7456 13.2838L32.4301 12.3788C32.5838 12.3275 32.7135 12.3275 32.8211 12.3805C32.927 12.4334 33.0056 12.5324 33.0551 12.6827C33.1063 12.8364 33.1063 12.9662 33.0534 13.0721C33.0004 13.1779 32.898 13.2582 32.7443 13.3094L30.5756 14.0403L31.0025 15.3091L32.9953 14.638C33.1541 14.585 33.2873 14.5833 33.3932 14.6363C33.4991 14.6892 33.5793 14.7917 33.6306 14.9471C33.6818 15.1007 33.6818 15.2305 33.6288 15.3364C33.5776 15.4423 33.4717 15.5225 33.3129 15.5772L31.3201 16.2483L31.776 17.6025L33.9465 16.8699C34.1002 16.8186 34.2299 16.8186 34.3358 16.8716C34.4417 16.9245 34.5202 17.0253 34.5715 17.1738C34.6227 17.3275 34.6227 17.4573 34.5698 17.5632C34.5168 17.6708 34.4144 17.7493 34.259 17.8005L31.5763 18.7073H31.5745ZM38.8662 17.2404C38.6613 17.2507 38.5025 17.2012 38.3881 17.0919C38.2754 16.9826 38.2139 16.8238 38.2036 16.612L38.0961 14.2606L38.3881 14.971L36.3491 12.3429C36.2689 12.2319 36.2296 12.1107 36.2347 11.9775C36.2398 11.8443 36.2894 11.7264 36.3816 11.6257C36.4738 11.5232 36.6104 11.4686 36.788 11.46C36.9178 11.4549 37.0373 11.4822 37.1449 11.542C37.2542 11.6018 37.3601 11.6991 37.4625 11.8357L38.8474 13.6492L38.5879 13.6612L39.7986 11.7281C39.8942 11.5779 39.9916 11.4686 40.0889 11.402C40.1862 11.3354 40.3023 11.2978 40.4373 11.2927C40.6097 11.2842 40.748 11.3217 40.8488 11.4071C40.9495 11.4925 41.0059 11.6001 41.0179 11.7333C41.0298 11.8648 40.9905 12.0031 40.8983 12.1482L39.1343 14.9351L39.3512 14.2025L39.4605 16.554C39.481 16.9911 39.2829 17.2199 38.8662 17.2387V17.2404ZM47.4147 18.3641C47.22 18.2804 47.0937 18.1626 47.0356 18.014C46.9758 17.8637 46.9878 17.693 47.0732 17.4983L48.8252 13.4546C48.9089 13.2599 49.025 13.1335 49.1753 13.0755C49.3239 13.0157 49.4963 13.0294 49.6893 13.113L51.4926 13.8934C51.8648 14.0557 52.1586 14.2469 52.3754 14.4706C52.5906 14.6943 52.7221 14.9368 52.7716 15.1998C52.8194 15.4628 52.7819 15.736 52.6589 16.0178C52.524 16.332 52.3191 16.5574 52.0459 16.6991C51.7726 16.8408 51.4636 16.8801 51.1186 16.8186L51.1698 16.7008C51.5045 16.9211 51.7248 17.1875 51.829 17.4949C51.9349 17.8023 51.911 18.1335 51.759 18.4853C51.5558 18.9532 51.2364 19.2469 50.801 19.3665C50.3655 19.4877 49.8652 19.4262 49.2982 19.1803L47.4147 18.3641ZM48.2839 17.7237L49.5134 18.2548C49.8105 18.3846 50.0547 18.4204 50.2443 18.3641C50.4338 18.3077 50.579 18.166 50.678 17.9372C50.7771 17.7083 50.7805 17.5068 50.6917 17.3326C50.6012 17.1585 50.4082 17.0065 50.1111 16.8767L48.8816 16.3456L48.2839 17.722V17.7237ZM49.2521 15.4884L50.3553 15.9665C50.6422 16.0912 50.8795 16.1288 51.0657 16.0809C51.2535 16.0314 51.3935 15.8982 51.4875 15.6796C51.5814 15.4662 51.5814 15.2732 51.4892 15.1042C51.3969 14.9351 51.2074 14.7882 50.9205 14.6636L49.8174 14.1854L49.2521 15.4884ZM53.0038 21.279C52.8911 21.1783 52.8211 21.0707 52.7972 20.9563C52.7733 20.8402 52.7904 20.7309 52.8519 20.625C52.9116 20.5191 53.0158 20.4354 53.1661 20.3723L57.7357 18.3299C57.9236 18.2497 58.0892 18.2172 58.2327 18.2326C58.3778 18.2479 58.5093 18.3077 58.6271 18.4119C58.745 18.516 58.8201 18.639 58.8543 18.7807C58.8884 18.9225 58.8748 19.0881 58.8133 19.2811L57.3737 24.0813C57.3293 24.2384 57.2593 24.3545 57.1654 24.4348C57.0698 24.5133 56.9656 24.5475 56.8529 24.5372C56.7385 24.527 56.6275 24.474 56.5165 24.3767C56.3799 24.2555 56.3013 24.1291 56.2825 23.9976C56.2655 23.8678 56.2894 23.7073 56.3543 23.5195L56.7351 22.3514L56.8819 22.9457L54.3426 20.707L54.9506 20.7787L53.8457 21.3081C53.6596 21.3969 53.5042 21.443 53.3812 21.4464C53.26 21.4498 53.1336 21.3951 53.0038 21.2807V21.279ZM57.6811 19.4604L55.2648 20.6301L55.3092 20.2493L57.2149 21.9279L56.8409 22.0201L57.6931 19.4706L57.6811 19.4604ZM59.4178 28.569C59.0985 28.0413 58.9294 27.5256 58.9123 27.0253C58.8935 26.5232 59.0131 26.0587 59.2675 25.6284C59.5237 25.1998 59.9079 24.8292 60.4236 24.5184C60.8078 24.2862 61.1869 24.1342 61.5643 24.0608C61.9417 23.9891 62.3054 23.9942 62.6572 24.0796C63.0073 24.165 63.3386 24.3272 63.6476 24.5663C63.9567 24.807 64.2299 25.1229 64.469 25.5174C64.609 25.7497 64.7217 26.0007 64.8071 26.2756C64.8942 26.5488 64.9369 26.805 64.9369 27.0458C64.942 27.2012 64.9096 27.3292 64.8362 27.4283C64.7644 27.529 64.6756 27.6007 64.5681 27.6434C64.4605 27.6861 64.3546 27.6964 64.247 27.6759C64.1394 27.6554 64.0489 27.6042 63.9738 27.5239C63.8987 27.4419 63.8577 27.3241 63.8474 27.1721C63.8474 26.9843 63.8184 26.8016 63.7638 26.6257C63.7091 26.4515 63.634 26.2842 63.5383 26.127C63.3505 25.8163 63.1319 25.5926 62.8809 25.4559C62.6316 25.3193 62.3584 25.2681 62.0629 25.3023C61.7675 25.3347 61.4499 25.4542 61.1118 25.6592C60.7788 25.8589 60.5261 26.0844 60.3536 26.3337C60.1811 26.583 60.0974 26.8511 60.1026 27.1363C60.1077 27.4214 60.2033 27.7186 60.3911 28.0294C60.4799 28.1762 60.5892 28.318 60.7207 28.4495C60.8522 28.5826 61.0008 28.6971 61.1664 28.7927C61.2979 28.8781 61.385 28.972 61.4277 29.0762C61.4687 29.1803 61.4738 29.2845 61.4448 29.3887C61.4157 29.4911 61.3594 29.5782 61.2757 29.6516C61.1937 29.7234 61.0947 29.7695 60.9803 29.7882C60.8642 29.807 60.7446 29.7848 60.6183 29.7217C60.398 29.6209 60.1811 29.4638 59.9642 29.2538C59.7491 29.042 59.5663 28.8149 59.4178 28.569ZM61.3286 32.7442C61.2791 32.5444 61.2979 32.3788 61.3816 32.2456C61.467 32.1141 61.6087 32.0236 61.8085 31.974L66.2535 30.8794C66.4533 30.8299 66.6189 30.8453 66.7538 30.9238C66.887 31.0024 66.9776 31.1424 67.0271 31.3422C67.0749 31.5352 67.0578 31.6991 66.9758 31.8306C66.8939 31.9621 66.7538 32.0526 66.5541 32.1021L64.6859 32.5615L64.6893 32.5768L67.3959 34.1342C67.5138 34.2008 67.6077 34.276 67.6828 34.3613C67.7562 34.445 67.8092 34.5509 67.8399 34.6773C67.886 34.8617 67.8707 35.0051 67.7955 35.111C67.7204 35.2152 67.6196 35.2783 67.4916 35.2988C67.3618 35.3176 67.2303 35.2903 67.0937 35.2117L64.4229 33.6373L64.954 33.5143L63.1405 36.3029C63.038 36.4549 62.9202 36.5505 62.7836 36.5864C62.6469 36.6223 62.5223 36.6069 62.4079 36.5369C62.2935 36.4669 62.2132 36.3439 62.1705 36.1646C62.1329 36.0126 62.1347 35.8829 62.1739 35.7753C62.2149 35.6677 62.2815 35.543 62.3754 35.403L64.0899 32.7254L64.0865 32.7083L62.1073 33.1967C61.9075 33.2445 61.7402 33.2326 61.6053 33.1557C61.4704 33.0806 61.3782 32.944 61.3286 32.7442Z" fill="#FEFFFE"/>
<path d="M13.7141 39.5048L14.3801 41.5557C14.4279 41.7076 14.5697 41.8101 14.7285 41.8101H16.8852C17.2404 41.8101 17.389 42.266 17.1004 42.4744L15.3569 43.7415C15.2271 43.8354 15.1742 44.001 15.2237 44.153L15.8897 46.2039C15.999 46.542 15.6113 46.8238 15.3245 46.6137L13.5792 45.3466C13.4512 45.2527 13.277 45.2527 13.1472 45.3466L11.4037 46.6137C11.1151 46.8238 10.7275 46.542 10.8385 46.2039L11.5044 44.153C11.554 44.001 11.4993 43.8354 11.3712 43.7415L9.62603 42.4744C9.33914 42.266 9.486 41.8101 9.8429 41.8101H11.998C12.1585 41.8101 12.2985 41.7076 12.348 41.5557L13.014 39.5048C13.125 39.1667 13.6031 39.1667 13.7124 39.5048H13.7141Z" fill="#FEFFFE"/>
<path d="M66.8238 39.5048L67.4897 41.5557C67.5393 41.7076 67.681 41.8101 67.8398 41.8101H69.9949C70.3518 41.8101 70.5003 42.266 70.2117 42.4744L68.4665 43.7415C68.3384 43.8354 68.2855 44.001 68.3333 44.153L68.9993 46.2039C69.1103 46.542 68.7227 46.8238 68.4358 46.6137L66.6906 45.3466C66.5625 45.2527 66.3883 45.2527 66.2585 45.3466L64.515 46.6137C64.2264 46.8238 63.8388 46.542 63.9498 46.2039L64.6158 44.153C64.6653 44.001 64.6106 43.8354 64.4826 43.7415L62.7374 42.4744C62.4505 42.266 62.5973 41.8101 62.9542 41.8101H65.1093C65.2681 41.8101 65.4098 41.7076 65.4593 41.5557L66.1253 39.5048C66.2346 39.1667 66.7145 39.1667 66.8238 39.5048Z" fill="#FEFFFE"/>
<mask id="mask1_5_452" style="mask-type:luminance" maskUnits="userSpaceOnUse" x="0" y="51" width="80" height="17">
<path d="M0.216797 51.5847H79.7813V67.3224H0.216797V51.5847Z" fill="white"/>
</mask>
<g mask="url(#mask1_5_452)">
<path d="M2.70143 51.9348H77.1379C77.3001 51.9348 77.4624 51.9502 77.6212 51.9826C77.7817 52.015 77.9371 52.0612 78.0874 52.1243C78.2376 52.1858 78.3811 52.2627 78.516 52.3532C78.6509 52.4437 78.7773 52.5461 78.8917 52.6622C79.0078 52.7767 79.1102 52.903 79.2008 53.0379C79.2913 53.1728 79.3681 53.3163 79.4296 53.4665C79.4928 53.6168 79.5389 53.7722 79.5713 53.9327C79.6038 54.0915 79.6191 54.2538 79.6191 54.416V64.737C79.6191 64.901 79.6038 65.0615 79.5713 65.222C79.5389 65.3808 79.4928 65.5362 79.4296 65.6865C79.3681 65.8385 79.2913 65.9802 79.2008 66.1168C79.1102 66.2517 79.0078 66.3764 78.8917 66.4925C78.7773 66.6069 78.6509 66.7111 78.516 66.8016C78.3811 66.8921 78.2376 66.9672 78.0874 67.0304C77.9371 67.0919 77.7817 67.1397 77.6212 67.1721C77.4624 67.2029 77.3001 67.22 77.1379 67.22H2.70143C2.5392 67.22 2.37698 67.2029 2.21646 67.1721C2.05765 67.1397 1.90225 67.0919 1.75198 67.0304C1.6017 66.9672 1.45826 66.8921 1.32336 66.8016C1.18675 66.7111 1.06209 66.6069 0.945966 66.4925C0.831554 66.3764 0.729095 66.2517 0.63859 66.1168C0.548084 65.9802 0.47124 65.8385 0.408057 65.6865C0.346581 65.5362 0.298767 65.3808 0.268029 65.222C0.235584 65.0615 0.220215 64.901 0.220215 64.737V54.416C0.220215 54.2538 0.235584 54.0915 0.268029 53.9327C0.298767 53.7722 0.346581 53.6168 0.408057 53.4665C0.47124 53.3163 0.548084 53.1728 0.63859 53.0379C0.729095 52.903 0.831554 52.7767 0.945966 52.6622C1.06209 52.5461 1.18675 52.4437 1.32336 52.3532C1.45826 52.2627 1.6017 52.1858 1.75198 52.1243C1.90225 52.0612 2.05765 52.015 2.21646 51.9826C2.37698 51.9502 2.5392 51.9348 2.70143 51.9348Z" fill="#FEFFFE"/>
</g>
<path d="M17.7339 62.5103C17.1379 62.5103 16.6342 62.3976 16.2226 62.1721C15.8094 61.9467 15.4952 61.6325 15.28 61.2261C15.0649 60.8214 14.9573 60.3467 14.9573 59.8002C14.9573 59.3801 15.0205 59.001 15.1485 58.6629C15.2766 58.3248 15.461 58.0379 15.7052 57.8006C15.9477 57.5615 16.2414 57.3788 16.5898 57.249C16.9381 57.1175 17.3309 57.0526 17.7715 57.0526C18.043 57.0526 18.3128 57.0833 18.5826 57.1431C18.8524 57.2029 19.1137 57.3036 19.363 57.4437C19.4689 57.5034 19.5406 57.5803 19.5782 57.6725C19.6157 57.7647 19.6243 57.862 19.6072 57.9645C19.5901 58.067 19.5509 58.1575 19.4877 58.236C19.4245 58.3129 19.3442 58.3624 19.2469 58.3863C19.1496 58.4085 19.0386 58.3897 18.9139 58.3299C18.7483 58.2394 18.5724 58.1728 18.3879 58.1301C18.2035 58.0874 18.0003 58.067 17.78 58.067C17.4248 58.067 17.1277 58.1336 16.8869 58.265C16.6461 58.3982 16.4685 58.5929 16.3507 58.8508C16.2329 59.1086 16.1731 59.4245 16.1731 59.8002C16.1731 60.3655 16.3097 60.7941 16.583 61.0844C16.8562 61.3747 17.2592 61.5198 17.7954 61.5198C17.9747 61.5198 18.1591 61.501 18.3504 61.4669C18.5399 61.431 18.7278 61.3815 18.9139 61.3166L18.6953 61.7896V60.3484H18.0191C17.8705 60.3484 17.7544 60.3108 17.6741 60.2357C17.5956 60.1605 17.5546 60.0581 17.5546 59.9283C17.5546 59.7968 17.5956 59.6892 17.6741 59.6158C17.7544 59.5441 17.8705 59.5065 18.0191 59.5065H19.1991C19.3494 59.5065 19.4621 59.5475 19.5389 59.6277C19.6175 59.708 19.6567 59.8224 19.6567 59.9727V61.7145C19.6567 61.8443 19.6311 61.9536 19.5816 62.0441C19.5304 62.1346 19.445 62.1995 19.3254 62.2387C19.1 62.319 18.8473 62.3839 18.5672 62.4351C18.2872 62.4846 18.0088 62.5103 17.7339 62.5103ZM23.4016 62.5103C23.0259 62.5103 22.6946 62.4607 22.406 62.3634C22.1192 62.2661 21.8767 62.1209 21.682 61.9314C21.4873 61.7418 21.3405 61.5027 21.2431 61.2142C21.1458 60.9273 21.0963 60.5926 21.0963 60.2135V57.6605C21.0963 57.4659 21.1458 57.319 21.2466 57.2183C21.3473 57.1175 21.4925 57.068 21.682 57.068C21.8716 57.068 22.0099 57.1175 22.1106 57.2183C22.2097 57.319 22.2592 57.4659 22.2592 57.6605V60.2203C22.2592 60.6506 22.3582 60.9751 22.5529 61.192C22.7476 61.4105 23.0293 61.5181 23.3999 61.5181C23.7705 61.5181 24.0522 61.4105 24.2452 61.192C24.4382 60.9751 24.5338 60.6506 24.5338 60.2203V57.6605C24.5338 57.4659 24.5833 57.319 24.6841 57.2183C24.7848 57.1175 24.9265 57.068 25.1127 57.068C25.2971 57.068 25.4388 57.1175 25.5362 57.2183C25.6335 57.319 25.683 57.4659 25.683 57.6605V60.2135C25.683 60.7189 25.5959 61.1424 25.4235 61.4857C25.251 61.8289 24.9966 62.0851 24.6584 62.2541C24.3203 62.4249 23.9002 62.5103 23.3999 62.5103H23.4016ZM27.2729 62.4949C27.1328 62.4949 27.0201 62.4624 26.933 62.3976C26.8442 62.3327 26.7896 62.2439 26.7674 62.1346C26.7452 62.0236 26.7657 61.9006 26.8306 61.7657L28.7517 57.5564C28.8319 57.3856 28.9276 57.2609 29.0386 57.1841C29.1479 57.1073 29.2759 57.068 29.4211 57.068C29.5662 57.068 29.6926 57.1073 29.8036 57.1841C29.9129 57.2627 30.0068 57.3856 30.0802 57.5564L32.0167 61.7657C32.0816 61.9023 32.1055 62.0253 32.0884 62.138C32.0713 62.2507 32.0201 62.3378 31.9347 62.401C31.8494 62.4624 31.7401 62.4949 31.6052 62.4949C31.4344 62.4949 31.3029 62.4539 31.2107 62.3737C31.1185 62.2951 31.0365 62.1687 30.9665 61.9997L30.5157 60.9563L30.9819 61.279H27.8517L28.3162 60.9563L27.8739 61.9997C27.7988 62.1739 27.7203 62.3002 27.6383 62.3788C27.5546 62.4556 27.4334 62.4949 27.2729 62.4949ZM29.4057 58.3743L28.4443 60.6626L28.2411 60.3706H30.5908L30.3876 60.6626L29.4194 58.3743H29.4057ZM33.8114 62.4949C33.6202 62.4949 33.475 62.442 33.376 62.3361C33.2752 62.2319 33.2257 62.0834 33.2257 61.8938V57.7288C33.2257 57.5325 33.2769 57.3856 33.3794 57.2849C33.4819 57.1858 33.6287 57.1363 33.8183 57.1363H35.642C36.2329 57.1363 36.6888 57.278 37.0082 57.5632C37.3292 57.8484 37.488 58.2463 37.488 58.7568C37.488 59.0864 37.4163 59.3716 37.2711 59.6124C37.126 59.8532 36.9177 60.0376 36.6444 60.1674C36.3712 60.2989 36.0365 60.3637 35.642 60.3637L35.7018 60.2357H36.0092C36.2209 60.2357 36.4037 60.2869 36.5608 60.3894C36.7196 60.4918 36.8562 60.6489 36.9706 60.859L37.4351 61.7213C37.5051 61.8477 37.5375 61.9689 37.5341 62.0902C37.529 62.2097 37.4829 62.3071 37.3975 62.3822C37.3138 62.4573 37.1875 62.4949 37.0235 62.4949C36.8579 62.4949 36.7247 62.459 36.6222 62.389C36.5198 62.319 36.4276 62.2114 36.3473 62.0663L35.6267 60.7377C35.5515 60.5977 35.461 60.5038 35.3535 60.4525C35.2459 60.403 35.1144 60.3774 34.959 60.3774H34.3886V61.8938C34.3886 62.0834 34.3408 62.2319 34.2435 62.3361C34.1444 62.442 34.001 62.4949 33.8114 62.4949ZM34.3886 59.5372H35.432C35.7428 59.5372 35.9767 59.4758 36.1338 59.3494C36.291 59.2247 36.3712 59.0369 36.3712 58.7859C36.3712 58.5366 36.291 58.3555 36.1338 58.2309C35.9767 58.1062 35.7428 58.043 35.432 58.043H34.3886V59.5372ZM38.9446 62.4949C38.8046 62.4949 38.6902 62.4624 38.6031 62.3976C38.516 62.3327 38.4614 62.2439 38.4375 62.1346C38.4153 62.0236 38.4375 61.9006 38.5024 61.7657L40.4235 57.5564C40.5037 57.3856 40.5994 57.2609 40.7086 57.1841C40.8196 57.1073 40.946 57.068 41.0912 57.068C41.2363 57.068 41.3644 57.1073 41.4737 57.1841C41.5847 57.2627 41.6769 57.3856 41.752 57.5564L43.6885 61.7657C43.7534 61.9023 43.7773 62.0253 43.7602 62.138C43.7414 62.2507 43.6902 62.3378 43.6065 62.401C43.5211 62.4624 43.4101 62.4949 43.2752 62.4949C43.1062 62.4949 42.9747 62.4539 42.8825 62.3737C42.7886 62.2951 42.7083 62.1687 42.6383 61.9997L42.1875 60.9563L42.6519 61.279H39.5218L39.988 60.9563L39.5457 61.9997C39.4706 62.1739 39.392 62.3002 39.3084 62.3788C39.2264 62.4556 39.1052 62.4949 38.9446 62.4949ZM41.0758 58.3743L40.1161 60.6626L39.9129 60.3706H42.2626L42.0594 60.6626L41.0912 58.3743H41.0758ZM45.4371 62.4949C45.2612 62.4949 45.128 62.4454 45.0358 62.348C44.9419 62.2507 44.8958 62.1124 44.8958 61.9314V57.6537C44.8958 57.4642 44.9419 57.319 45.0358 57.2183C45.128 57.1175 45.251 57.068 45.4064 57.068C45.5413 57.068 45.6455 57.0936 45.7189 57.1465C45.7906 57.1995 45.8743 57.2849 45.9699 57.4061L48.6048 60.7616H48.4016V57.623C48.4016 57.4488 48.4477 57.3122 48.5399 57.2148C48.6321 57.1175 48.767 57.068 48.9412 57.068C49.1171 57.068 49.2503 57.1175 49.3425 57.2148C49.4347 57.3122 49.4826 57.4488 49.4826 57.623V61.9536C49.4826 62.1192 49.4399 62.2507 49.3545 62.348C49.2691 62.4454 49.1547 62.4949 49.0095 62.4949C48.8644 62.4949 48.7568 62.4676 48.6748 62.4112C48.5929 62.3566 48.5041 62.2695 48.4084 62.1499L45.7821 58.7944H45.9767V61.9314C45.9767 62.1124 45.9323 62.2507 45.8418 62.348C45.7513 62.4454 45.6164 62.4949 45.4371 62.4949ZM52.8449 62.4949C52.6537 62.4949 52.5102 62.442 52.4095 62.3361C52.3087 62.2319 52.2592 62.0834 52.2592 61.8938V58.096H50.9306C50.7752 58.096 50.6557 58.0533 50.5703 57.9696C50.4849 57.8842 50.4422 57.7664 50.4422 57.6161C50.4422 57.4659 50.4849 57.3429 50.5703 57.2592C50.6557 57.1773 50.7752 57.1363 50.9306 57.1363H54.7507C54.906 57.1363 55.0256 57.1773 55.111 57.2592C55.1964 57.3429 55.239 57.4607 55.239 57.6161C55.239 57.7715 55.1964 57.8842 55.111 57.9696C55.0256 58.0533 54.906 58.096 54.7507 58.096H53.4221V61.8938C53.4221 62.0851 53.3743 62.2319 53.2752 62.3361C53.1779 62.442 53.0345 62.4949 52.8449 62.4949ZM56.7998 62.4266C56.6052 62.4266 56.4549 62.3737 56.3507 62.2695C56.2448 62.1636 56.1919 62.0133 56.1919 61.8187V57.7442C56.1919 57.5478 56.2448 57.3976 56.3507 57.2934C56.4549 57.1875 56.6052 57.1363 56.7998 57.1363H59.4194C59.5696 57.1363 59.6841 57.1739 59.7609 57.2524C59.8377 57.3293 59.877 57.4402 59.877 57.5854C59.877 57.7305 59.8395 57.8501 59.7609 57.9269C59.6841 58.0038 59.5696 58.043 59.4194 58.043H57.3036V59.2828H59.2469C59.4023 59.2828 59.5184 59.3204 59.597 59.3989C59.6738 59.4758 59.7131 59.5902 59.7131 59.7405C59.7131 59.889 59.6738 60.0034 59.597 60.0803C59.5184 60.1588 59.4023 60.1981 59.2469 60.1981H57.3036V61.5181H59.4194C59.5696 61.5181 59.6841 61.5574 59.7609 61.6342C59.8377 61.7128 59.877 61.8238 59.877 61.9689C59.877 62.1141 59.8395 62.2336 59.7609 62.3105C59.6841 62.3873 59.5696 62.4266 59.4194 62.4266H56.7998ZM61.7913 62.4266C61.5966 62.4266 61.4464 62.3737 61.3405 62.2695C61.2363 62.1636 61.1834 62.0133 61.1834 61.8187V57.7442C61.1834 57.5478 61.2363 57.3976 61.3405 57.2934C61.4464 57.1875 61.5966 57.1363 61.7913 57.1363H64.4108C64.5611 57.1363 64.6755 57.1739 64.7524 57.2524C64.8292 57.3293 64.8685 57.4402 64.8685 57.5854C64.8685 57.7305 64.8292 57.8501 64.7524 57.9269C64.6738 58.0038 64.5611 58.043 64.4108 58.043H62.2951V59.2828H64.2384C64.3938 59.2828 64.5099 59.3204 64.5867 59.3989C64.6653 59.4758 64.7028 59.5902 64.7028 59.7405C64.7028 59.889 64.6653 60.0034 64.5867 60.0803C64.5099 60.1588 64.3938 60.1981 64.2384 60.1981H62.2951V61.5181H64.4108C64.5611 61.5181 64.6755 61.5574 64.7524 61.6342C64.8292 61.7128 64.8685 61.8238 64.8685 61.9689C64.8685 62.1141 64.8292 62.2336 64.7524 62.3105C64.6738 62.3873 64.5611 62.4266 64.4108 62.4266H61.7913Z" fill="#00C632"/>
<path d="M73.6869 56.1134L74.3529 58.1643C74.4024 58.3163 74.5441 58.4187 74.703 58.4187H76.858C77.2149 58.4187 77.3618 58.873 77.0749 59.083L75.3297 60.3501C75.2016 60.444 75.1469 60.6096 75.1965 60.7616L75.8625 62.8108C75.9734 63.1506 75.5858 63.4324 75.2972 63.2223L73.5537 61.9553C73.4239 61.8613 73.2497 61.8613 73.1217 61.9553L71.3765 63.2223C71.0896 63.4324 70.7019 63.1506 70.8112 62.8108L71.4772 60.7616C71.5267 60.6096 71.4738 60.444 71.344 60.3501L69.6005 59.083C69.3119 58.873 69.4605 58.4187 69.8157 58.4187H71.9724C72.1312 58.4187 72.273 58.3163 72.3208 58.1643L72.9868 56.1134C73.0978 55.7753 73.5759 55.7753 73.6869 56.1134Z" fill="#00C632"/>
<path d="M7.7869 56.1134L8.45459 58.1643C8.5024 58.3163 8.64414 58.4187 8.80295 58.4187H10.9597C11.3149 58.4187 11.4635 58.873 11.1749 59.083L9.42966 60.3501C9.30158 60.444 9.24865 60.6096 9.29646 60.7616L9.96415 62.8108C10.0734 63.1506 9.6858 63.4324 9.39892 63.2223L7.6537 61.9553C7.52563 61.8613 7.35145 61.8613 7.22166 61.9553L5.47815 63.2223C5.18956 63.4324 4.80192 63.1506 4.91292 62.8108L5.5789 60.7616C5.62843 60.6096 5.57378 60.444 5.44571 60.3501L3.70049 59.083C3.4136 58.873 3.56046 58.4187 3.91736 58.4187H6.07242C6.23293 58.4187 6.37296 58.3163 6.42248 58.1643L7.08847 56.1134C7.19776 55.7753 7.67761 55.7753 7.7869 56.1134Z" fill="#00C632"/>
<path d="M50.6627 26.5745C51.204 26.7913 51.5592 27.3173 51.5592 27.9013V31.9467C51.5592 39.6158 47.0442 46.5642 40.036 49.679C39.9967 49.696 39.9591 49.7131 39.9199 49.7302C39.8806 49.7131 39.843 49.696 39.8037 49.679C32.7955 46.5642 28.2805 39.6158 28.2805 31.9467V27.9013C28.2805 27.3173 28.634 26.7913 29.177 26.5745C32.5872 25.1998 35.9974 23.8269 39.4076 22.4539C39.7354 22.3207 40.1026 22.3207 40.4322 22.4539C43.8423 23.8269 47.2525 25.1998 50.6627 26.5745Z" fill="#FEFFFE"/>
<path d="M36.0381 33.0328H43.8011C43.9992 33.0328 44.1905 33.0721 44.3749 33.1472C44.5576 33.224 44.7198 33.3316 44.8599 33.4716C45.0016 33.6134 45.1092 33.7756 45.186 33.9583C45.2612 34.1427 45.3004 34.334 45.3004 34.5321V39.807C45.3004 40.0068 45.2612 40.1981 45.186 40.3808C45.1092 40.5652 45.0016 40.7274 44.8599 40.8675C44.7198 41.0075 44.5576 41.1168 44.3749 41.1919C44.1905 41.2688 43.9992 41.3063 43.8011 41.3063H36.0381C35.8383 41.3063 35.6471 41.2688 35.4644 41.1919C35.2799 41.1168 35.1177 41.0075 34.9777 40.8675C34.8377 40.7274 34.7284 40.5652 34.6532 40.3808C34.5764 40.1981 34.5388 40.0068 34.5388 39.807V34.5321C34.5388 34.334 34.5764 34.1427 34.6532 33.9583C34.7284 33.7756 34.8377 33.6134 34.9777 33.4716C35.1177 33.3316 35.2799 33.224 35.4644 33.1472C35.6471 33.0721 35.8383 33.0328 36.0381 33.0328Z" fill="#00C632"/>
<path d="M37.4966 35.2852C36.9809 35.2852 36.5642 34.8668 36.5642 34.3528V31.1236C36.5642 29.2742 38.0686 27.7681 39.9197 27.7681C41.7691 27.7681 43.2753 29.2742 43.2753 31.1236C43.2753 31.6393 42.8569 32.056 42.3429 32.056C41.8272 32.056 41.4105 31.6393 41.4105 31.1236C41.4105 30.3022 40.7411 29.6346 39.9197 29.6346C39.0984 29.6346 38.4307 30.3022 38.4307 31.1236V34.3528C38.4307 34.8685 38.0123 35.2852 37.4983 35.2852H37.4966Z" fill="#00C632"/>
<path d="M40.9237 36.3849C40.9237 36.7708 40.7051 37.1055 40.3858 37.2746V38.7978C40.3858 39.0557 40.1775 39.264 39.9196 39.264C39.6618 39.264 39.4534 39.0557 39.4534 38.7978V37.2746C39.1341 37.1072 38.9155 36.7725 38.9155 36.3849C38.9155 35.8316 39.3646 35.3808 39.9196 35.3808C40.4746 35.3808 40.9237 35.8316 40.9237 36.3849Z" fill="#FEFFFE"/>
</g>
<defs>
<clipPath id="clip0_5_452">
<rect width="80" height="80" fill="white"/>
</clipPath>
</defs>
</svg>
