<svg width="140" height="34" viewBox="0 0 140 34" fill="none" xmlns="http://www.w3.org/2000/svg">
<mask id="mask0_5_615" style="mask-type:luminance" maskUnits="userSpaceOnUse" x="0" y="0" width="140" height="34">
<path d="M140 0H0V34H140V0Z" fill="white"/>
</mask>
<g mask="url(#mask0_5_615)">
<path d="M36.7859 10.9698H50.959V13.5668H45.3869V28.1688H42.321V13.5668H36.7729V10.9688H36.785L36.7859 10.9698ZM50.354 15.7148H52.974V18.1187H53.0229C53.1099 17.7787 53.27 17.4508 53.505 17.1348C54.008 16.4575 54.688 15.9324 55.47 15.6178C55.868 15.4603 56.291 15.3779 56.718 15.3748C57.038 15.3748 57.2739 15.3867 57.3979 15.3997C57.5209 15.4117 57.644 15.4358 57.78 15.4478V18.0938C57.58 18.0585 57.378 18.0303 57.175 18.0088C56.974 17.985 56.772 17.9729 56.569 17.9727C56.099 17.9727 55.655 18.0698 55.235 18.2528C54.815 18.4338 54.4559 18.7127 54.1479 19.0658C53.82 19.4604 53.568 19.9132 53.406 20.4007C53.221 20.9347 53.134 21.5407 53.134 22.2337V28.1567H50.3419V15.7148H50.354ZM70.619 28.1698H67.876V26.4338H67.826C67.48 27.0658 66.974 27.5638 66.294 27.9398C65.614 28.3158 64.922 28.5098 64.218 28.5098C62.55 28.5098 61.338 28.1096 60.598 27.2957C59.856 26.4827 59.485 25.2568 59.485 23.6178V15.7157H62.278V23.3507C62.278 24.4438 62.488 25.2207 62.921 25.6698C63.341 26.1188 63.946 26.3498 64.712 26.3498C65.305 26.3498 65.787 26.2648 66.182 26.0818C66.578 25.8998 66.899 25.6697 67.134 25.3657C67.381 25.0746 67.554 24.7108 67.666 24.2978C67.776 23.8848 67.826 23.4358 67.826 22.9508V15.7278H70.619V28.1698ZM75.376 24.1768C75.463 24.9768 75.7709 25.5368 76.3029 25.8638C76.8459 26.1798 77.4889 26.3498 78.243 26.3498C78.5029 26.3498 78.799 26.3247 79.1329 26.2887C79.466 26.2517 79.787 26.1666 80.072 26.0588C80.368 25.9488 80.602 25.7788 80.8 25.5608C80.986 25.3408 81.072 25.0628 81.06 24.7108C81.059 24.5474 81.023 24.3862 80.955 24.2376C80.887 24.0891 80.7879 23.9566 80.6649 23.8488C80.4169 23.6188 80.109 23.4487 79.725 23.3027C79.298 23.1545 78.8599 23.0368 78.4149 22.9508C77.9209 22.8538 77.427 22.7438 76.921 22.6348C76.412 22.5245 75.9079 22.3865 75.4129 22.2218C74.9489 22.073 74.512 21.852 74.116 21.5667C73.731 21.298 73.417 20.9397 73.201 20.5228C72.967 20.0978 72.8549 19.5757 72.8549 18.9447C72.8549 18.2648 73.028 17.7068 73.362 17.2448C73.699 16.7866 74.1339 16.4094 74.6349 16.1408C75.174 15.856 75.753 15.6554 76.352 15.5457C76.982 15.4367 77.588 15.3757 78.156 15.3757C78.811 15.3757 79.441 15.4488 80.035 15.5828C80.611 15.7059 81.159 15.9318 81.653 16.2498C82.135 16.5538 82.53 16.9538 82.852 17.4398C83.173 17.9248 83.371 18.5198 83.457 19.2118H80.541C80.405 18.5568 80.108 18.1077 79.627 17.8888C79.145 17.6588 78.5889 17.5487 77.9709 17.5487C77.7729 17.5487 77.538 17.5607 77.267 17.5977C77.006 17.6325 76.749 17.6935 76.5 17.7798C76.273 17.8635 76.066 17.9959 75.895 18.1677C75.812 18.2574 75.748 18.3625 75.705 18.4771C75.663 18.5918 75.6439 18.7136 75.6479 18.8358C75.6479 19.1758 75.771 19.4426 76.006 19.6488C76.241 19.8548 76.55 20.0247 76.933 20.1707C77.316 20.3047 77.749 20.4258 78.243 20.5228C78.7369 20.6198 79.243 20.7288 79.763 20.8388C80.269 20.9478 80.763 21.0938 81.2579 21.2507C81.7519 21.4087 82.1839 21.6277 82.5679 21.9067C82.9509 22.1858 83.26 22.5257 83.494 22.9387C83.729 23.3506 83.853 23.8727 83.853 24.4797C83.853 25.2197 83.6799 25.8397 83.3329 26.3617C82.9879 26.8717 82.5429 27.2957 81.9989 27.6117C81.4299 27.9398 80.813 28.1772 80.17 28.3158C79.517 28.4594 78.8499 28.5326 78.1799 28.5338C77.4309 28.5422 76.684 28.4524 75.957 28.2668C75.277 28.0848 74.684 27.8176 74.19 27.4667C73.702 27.1119 73.301 26.6511 73.016 26.1187C72.732 25.5847 72.583 24.9408 72.559 24.2008H75.376V24.1768ZM84.5939 15.7167H86.707V11.9768H89.5V15.7167H92.02V17.7668H89.501V24.4198C89.501 24.7098 89.5129 24.9538 89.5379 25.1718C89.5619 25.3788 89.624 25.5606 89.711 25.7057C89.806 25.8581 89.949 25.9738 90.118 26.0338C90.304 26.1068 90.538 26.1437 90.86 26.1437C91.057 26.1437 91.255 26.1438 91.453 26.1308C91.651 26.1188 91.848 26.0947 92.046 26.0457V28.1698C91.737 28.2068 91.428 28.2308 91.144 28.2668C90.845 28.3015 90.544 28.3179 90.242 28.3158C89.501 28.3158 88.908 28.2428 88.462 28.1098C88.018 27.9757 87.659 27.7698 87.412 27.5028C87.152 27.2358 86.992 26.9078 86.893 26.5068C86.797 26.0557 86.744 25.5968 86.733 25.1357V17.7898H84.6199V15.7138H84.595L84.5939 15.7167ZM93.9969 15.7167H96.642V17.4028H96.692C97.086 16.6747 97.63 16.1648 98.334 15.8498C99.054 15.5298 99.834 15.3682 100.621 15.3757C101.621 15.3757 102.486 15.5458 103.228 15.8978C103.969 16.2378 104.587 16.7118 105.081 17.3178C105.575 17.9248 105.934 18.6287 106.181 19.4307C106.433 20.265 106.558 21.1324 106.552 22.0037C106.552 22.8407 106.441 23.6537 106.218 24.4317C106.014 25.1821 105.674 25.8892 105.217 26.5187C104.768 27.1255 104.185 27.6202 103.512 27.9638C102.82 28.3278 102.017 28.5098 101.078 28.5098C100.668 28.5093 100.258 28.4725 99.854 28.3997C99.451 28.3271 99.058 28.2094 98.681 28.0487C98.307 27.8926 97.957 27.6839 97.642 27.4288C97.332 27.1807 97.061 26.8863 96.839 26.5557H96.789V32.7708H93.9969V15.7148V15.7167ZM103.759 21.9548C103.76 21.4011 103.685 20.8502 103.537 20.3167C103.401 19.8113 103.174 19.3345 102.869 18.9088C102.58 18.5037 102.205 18.1677 101.77 17.9247C101.304 17.6726 100.781 17.5432 100.25 17.5487C99.076 17.5487 98.186 17.9487 97.593 18.7507C97 19.5517 96.703 20.6208 96.703 21.9548C96.703 22.5857 96.778 23.1686 96.938 23.7027C97.098 24.2367 97.321 24.6987 97.642 25.0868C97.952 25.4756 98.322 25.7787 98.755 25.9967C99.187 26.2277 99.6939 26.3368 100.262 26.3368C100.905 26.3368 101.436 26.2037 101.881 25.9487C102.312 25.7008 102.683 25.3611 102.968 24.9538C103.252 24.5408 103.463 24.0788 103.586 23.5578C103.7 23.031 103.758 22.4937 103.759 21.9548ZM108.689 10.9698H111.482V13.5677H108.689V10.9698ZM108.689 15.7157H111.482V28.1698H108.689V15.7157ZM113.978 10.9698H116.771V28.1698H113.978V10.9698ZM125.334 28.5098C124.32 28.5098 123.418 28.3398 122.628 28.0128C121.871 27.7021 121.186 27.2391 120.614 26.6528C120.059 26.0545 119.634 25.3476 119.365 24.5767C119.072 23.7259 118.925 22.8309 118.933 21.9307C118.933 20.9837 119.081 20.1108 119.365 19.3088C119.634 18.5382 120.059 17.8318 120.614 17.2337C121.157 16.6507 121.837 16.2018 122.628 15.8738C123.418 15.5458 124.32 15.3757 125.334 15.3757C126.347 15.3757 127.249 15.5458 128.04 15.8738C128.831 16.2018 129.498 16.6637 130.054 17.2337C130.61 17.8316 131.035 18.5382 131.302 19.3088C131.586 20.1096 131.734 20.9837 131.734 21.9307C131.734 22.8907 131.586 23.7758 131.302 24.5767C131.035 25.3477 130.61 26.0547 130.054 26.6528C129.51 27.2358 128.831 27.6848 128.04 28.0128C127.249 28.3398 126.347 28.5098 125.334 28.5098ZM125.334 26.3368C125.952 26.3368 126.495 26.2037 126.952 25.9487C127.398 25.7008 127.782 25.3563 128.077 24.9408C128.373 24.5288 128.583 24.0548 128.732 23.5328C128.868 23.0108 128.942 22.4767 128.942 21.9307C128.942 21.3967 128.868 20.8748 128.732 20.3407C128.605 19.8342 128.383 19.3564 128.077 18.9328C127.782 18.5211 127.397 18.181 126.952 17.9377C126.495 17.6827 125.952 17.5487 125.334 17.5487C124.716 17.5487 124.172 17.6827 123.715 17.9377C123.274 18.1847 122.89 18.5241 122.591 18.9328C122.29 19.359 122.068 19.8359 121.936 20.3407C121.8 20.8598 121.729 21.394 121.725 21.9307C121.725 22.4767 121.8 23.0108 121.936 23.5328C122.072 24.0548 122.294 24.5288 122.591 24.9408C122.887 25.3538 123.258 25.6937 123.715 25.9487C124.172 26.2157 124.716 26.3368 125.334 26.3368ZM132.55 15.7167H134.663V11.9768H137.456V15.7167H139.976V17.7668H137.456V24.4198C137.456 24.7098 137.468 24.9538 137.492 25.1718C137.517 25.3788 137.579 25.5606 137.666 25.7057C137.761 25.8583 137.904 25.974 138.073 26.0338C138.259 26.1068 138.493 26.1437 138.815 26.1437C139.012 26.1437 139.21 26.1438 139.408 26.1308C139.606 26.1188 139.803 26.0947 140.001 26.0457V28.1698C139.692 28.2068 139.383 28.2308 139.099 28.2668C138.8 28.3015 138.499 28.3179 138.197 28.3158C137.456 28.3158 136.862 28.2428 136.417 28.1098C135.973 27.9757 135.614 27.7698 135.367 27.5028C135.108 27.2358 134.947 26.9078 134.848 26.5068C134.752 26.0557 134.699 25.5967 134.688 25.1357V17.7898H132.575V15.7138H132.55V15.7167Z" fill="black"/>
<path d="M33.523 11.969H20.722L16.768 0L12.8 11.97L0 11.957L10.367 19.361L6.401 31.317L16.768 23.925L27.123 31.317L23.169 19.361L33.523 11.969Z" fill="#04DA8D"/>
<path d="M24.06 22.0683L23.17 19.3613L16.77 23.9253L24.06 22.0683Z" fill="#126849"/>
</g>
</svg>
