<svg width="137" height="45" viewBox="0 0 137 45" fill="none" xmlns="http://www.w3.org/2000/svg">
<path d="M0.234247 17.4821L2.29239 16.6887L3.11638 14.5907C3.22692 14.3092 3.68073 14.3092 3.792 14.5907L4.61744 16.6916L6.67995 17.5324C6.81813 17.5887 6.90831 17.725 6.90831 17.8762C6.90831 18.0273 6.8174 18.1636 6.67995 18.2199L4.61744 19.0607L3.792 21.1616C3.73673 21.3023 3.60291 21.3942 3.45455 21.3942C3.30619 21.3942 3.17238 21.3016 3.1171 21.1616L2.29021 19.0562L0.222611 18.1688C0.0858864 18.1095 -0.0028396 17.9717 6.9438e-05 17.8206C0.00297848 17.6695 0.0960679 17.5347 0.234974 17.4813L0.234247 17.4821Z" fill="#B3BBFD"/>
<path d="M65.2152 3.10244L67.2733 2.30905L68.0973 0.211129C68.2079 -0.0703713 68.6617 -0.0703713 68.773 0.211129L69.5984 2.31201L71.6609 3.15281C71.7991 3.20911 71.8893 3.34542 71.8893 3.49654C71.8893 3.64766 71.7984 3.78396 71.6609 3.84026L69.5984 4.68106L68.773 6.78194C68.7177 6.92269 68.5839 7.01455 68.4355 7.01455C68.2871 7.01455 68.1533 6.92195 68.0981 6.78194L67.2712 4.67662L65.2036 3.78915C65.0668 3.72989 64.9781 3.5921 64.981 3.44098C64.9839 3.28986 65.077 3.15503 65.2159 3.1017L65.2152 3.10244Z" fill="#B3BBFD"/>
<path d="M65.2152 3.10244L67.2733 2.30905L68.0973 0.211129C68.2079 -0.0703713 68.6617 -0.0703713 68.773 0.211129L69.5984 2.31201L71.6609 3.15281C71.7991 3.20911 71.8893 3.34542 71.8893 3.49654C71.8893 3.64766 71.7984 3.78396 71.6609 3.84026L69.5984 4.68106L68.773 6.78194C68.7177 6.92269 68.5839 7.01455 68.4355 7.01455C68.2871 7.01455 68.1533 6.92195 68.0981 6.78194L67.2712 4.67662L65.2036 3.78915C65.0668 3.72989 64.9781 3.5921 64.981 3.44098C64.9839 3.28986 65.077 3.15503 65.2159 3.1017L65.2152 3.10244Z" fill="#B3BBFD"/>
<path d="M123.968 37.8196C123.927 37.9624 123.895 38.1231 123.874 38.3015C123.853 38.48 123.843 38.6674 123.843 38.8638C123.843 39.8455 124.178 40.6576 124.848 41.3001C125.518 41.9248 126.585 42.2372 128.051 42.2372C128.783 42.2372 129.432 42.1658 129.997 42.023C130.584 41.8802 131.086 41.6839 131.505 41.434C131.923 41.1663 132.279 40.8718 132.572 40.5505C132.886 40.2114 133.148 39.8544 133.357 39.4796L135.367 40.4434C135.074 40.961 134.708 41.4518 134.268 41.9159C133.828 42.3621 133.305 42.7548 132.698 43.0939C132.091 43.433 131.39 43.7008 130.594 43.8971C129.799 44.0934 128.888 44.1916 127.862 44.1916C126.92 44.1916 126.051 44.0667 125.256 43.8168C124.481 43.5848 123.811 43.2456 123.246 42.7994C122.681 42.3353 122.241 41.7731 121.927 41.1127C121.613 40.4523 121.456 39.7027 121.456 38.8638C121.456 37.7393 121.666 36.6595 122.084 35.6242C122.503 34.5712 123.11 33.643 123.906 32.8398C124.701 32.0366 125.685 31.3941 126.857 30.9122C128.03 30.4124 129.359 30.1625 130.845 30.1625C131.892 30.1625 132.803 30.3053 133.577 30.5909C134.352 30.8586 134.99 31.2334 135.493 31.7154C135.995 32.1794 136.372 32.7149 136.623 33.3217C136.874 33.9108 137 34.5265 137 35.1691C137 35.651 136.937 36.1151 136.812 36.5613L136.466 37.8196H123.968ZM130.531 32.1437C129.799 32.1437 129.108 32.2419 128.459 32.4382C127.831 32.6167 127.255 32.8755 126.732 33.2147C126.208 33.5538 125.758 33.9554 125.381 34.4194C125.005 34.8657 124.712 35.3565 124.502 35.892H134.488C134.551 35.6064 134.582 35.3387 134.582 35.0888C134.582 34.1249 134.195 33.3931 133.42 32.8934C132.646 32.3936 131.683 32.1437 130.531 32.1437Z" fill="#B3BBFD"/>
<path d="M116.084 33.8572C116.104 33.768 116.114 33.6876 116.114 33.6162C116.134 33.5449 116.144 33.4645 116.144 33.3753C116.144 33.0183 116.034 32.7238 115.815 32.4918C115.596 32.2597 115.257 32.1437 114.799 32.1437C114.221 32.1437 113.763 32.3222 113.425 32.6792C113.106 33.0362 112.867 33.5359 112.707 34.1785L110.407 43.8168H108.076L110.437 33.8572C110.476 33.6787 110.496 33.4913 110.496 33.295C110.496 32.9737 110.397 32.706 110.197 32.4918C110.018 32.2597 109.68 32.1437 109.182 32.1437C108.544 32.1437 108.066 32.349 107.747 32.7595C107.429 33.17 107.199 33.643 107.06 34.1785L104.759 43.8168H102.458L105.596 30.5373H107.927L107.658 31.6618H108.016C108.235 31.1442 108.574 30.7694 109.032 30.5373C109.49 30.2875 109.998 30.1625 110.556 30.1625C111.174 30.1625 111.672 30.2964 112.05 30.5641C112.448 30.8318 112.697 31.1977 112.797 31.6618H113.156C113.434 31.1799 113.793 30.814 114.231 30.5641C114.67 30.2964 115.207 30.1625 115.845 30.1625C116.741 30.1625 117.419 30.4035 117.877 30.8854C118.335 31.3495 118.564 31.9652 118.564 32.7327C118.564 32.8934 118.554 33.0719 118.534 33.2682C118.514 33.4467 118.484 33.6073 118.444 33.7501L116.532 41.7285C116.492 41.8713 116.512 41.9784 116.592 42.0498C116.672 42.1212 116.771 42.1569 116.891 42.1569C117.01 42.1569 117.12 42.1212 117.219 42.0498L118.474 41.2198L119.729 42.7994L118.385 43.7097C118.166 43.8525 117.887 43.9685 117.548 44.0578C117.229 44.147 116.901 44.1916 116.562 44.1916C116.263 44.1916 115.974 44.1559 115.695 44.0845C115.417 44.0131 115.158 43.906 114.919 43.7632C114.699 43.6026 114.52 43.4063 114.381 43.1742C114.241 42.9244 114.172 42.6209 114.172 42.264C114.172 42.1747 114.172 42.0855 114.172 41.9962C114.191 41.907 114.211 41.8177 114.231 41.7285L116.084 33.8572Z" fill="#B3BBFD"/>
<path d="M96.0162 25.1714C96.0162 24.6125 96.1989 24.1404 96.5644 23.755C96.9482 23.3503 97.4051 23.1479 97.9351 23.1479C98.4651 23.1479 98.9129 23.3503 99.2784 23.755C99.6622 24.1404 99.8541 24.6125 99.8541 25.1714C99.8541 25.7302 99.6622 26.212 99.2784 26.6167C98.9129 27.0021 98.4651 27.1948 97.9351 27.1948C97.4051 27.1948 96.9482 27.0021 96.5644 26.6167C96.1989 26.212 96.0162 25.7302 96.0162 25.1714ZM95.5775 31.9643C95.6141 31.7716 95.5867 31.6078 95.4953 31.4729C95.4222 31.3187 95.2851 31.2416 95.0841 31.2416C94.9379 31.2416 94.8008 31.2802 94.6729 31.3573L91.4655 33.6698L90.3689 31.9643L93.6037 29.6518C94.1703 29.2471 94.7825 29.0448 95.4405 29.0448C96.0618 29.0448 96.601 29.2375 97.0579 29.6229C97.5148 30.0083 97.7432 30.6057 97.7432 31.4151C97.7432 31.7234 97.7067 32.0317 97.6336 32.3401L95.605 41.2721C95.5501 41.5033 95.5684 41.6864 95.6598 41.8213C95.7694 41.9562 95.9065 42.0236 96.071 42.0236C96.1989 42.0236 96.336 41.9754 96.4822 41.8791L99.6348 39.6244L100.731 41.3299L97.5788 43.5846C96.9939 43.9892 96.3817 44.1916 95.742 44.1916C95.1206 44.1916 94.5815 43.9989 94.1246 43.6135C93.6677 43.228 93.4393 42.6306 93.4393 41.8213C93.4393 41.5129 93.4758 41.2046 93.5489 40.8963L95.5775 31.9643Z" fill="#B3BBFD"/>
<path d="M76.5522 29.4495H81.4335L82.7389 23.1479H84.9525L83.647 29.4495H88.6418V31.5307H83.193L81.1781 41.2721C81.1213 41.5033 81.1402 41.6864 81.2348 41.8213C81.3483 41.9562 81.4902 42.0236 81.6605 42.0236C81.7929 42.0236 81.9348 41.9754 82.0862 41.8791L85.8606 39.2775L86.9958 40.983L83.2214 43.5846C82.6159 43.9892 81.9916 44.1916 81.3483 44.1916C80.6861 44.1916 80.1186 43.9892 79.6456 43.5846C79.1726 43.1799 78.9361 42.5728 78.9361 41.7635C78.9361 41.6286 78.9456 41.4937 78.9645 41.3588C78.9834 41.2046 79.0118 41.0504 79.0496 40.8963L80.9794 31.5307H76.5522V29.4495Z" fill="#B3BBFD"/>
<path d="M46.7778 24.9014V1.88491H60.3786V6.48821H64.9121V20.2981H60.3786V24.9014H46.7778ZM51.3114 11.0915H60.1972V6.48821H51.3114V11.0915ZM51.3114 20.2981H60.1972V15.6948H51.3114V20.2981Z" fill="black"/>
<path d="M28.462 24.9014V20.2981H23.9285V6.48821H28.462V1.88491H37.5292V6.48821H42.0628V20.2981H37.5292V24.9014H28.462ZM28.462 20.114H37.5292V6.67234H28.462V20.114Z" fill="black"/>
<path d="M14.6802 20.2981V1.88491H19.2138V20.2981H14.6802Z" fill="black"/>
<path d="M14.6802 20.3022L5.62205 20.3023V24.9015H14.6802V20.3022Z" fill="black"/>
<path d="M137 12.1258V14.2815H78.7585V12.1258H137Z" fill="black"/>
<path d="M-8.24109e-05 39.2066V37.0509L62.7419 37.0509V39.2066L-8.24109e-05 39.2066Z" fill="#B3BBFD"/>
<path d="M81.4895 13.2036C84.6326 15.8214 85.0732 17.4456 85.1122 20.2096L82.848 20.2096C83.0744 17.8013 81.2631 13.7954 76.5083 14.4523L76.5083 11.955C81.2631 12.6118 83.0744 8.60595 82.848 6.19765L85.1122 6.19765C85.0732 8.96168 84.6326 10.5859 81.4895 13.2036Z" fill="black"/>
<path d="M60.9378 37.994C57.7946 40.6118 57.354 42.236 57.3151 45L59.5793 45C59.3528 42.5917 61.1642 38.5858 65.9189 39.2426L65.9189 36.7454C61.1642 37.4022 59.3528 33.3963 59.5793 30.988L57.3151 30.988C57.354 33.7521 57.7946 35.3763 60.9378 37.994Z" fill="#B3BBFD"/>
</svg>
